<svg width="465" height="450" viewBox="0 0 465 450" fill="none" xmlns="http://www.w3.org/2000/svg">
<path d="M355.3 129H305C287.3 129 273 143.3 273 161C273 178.7 287.3 193 305 193H433C450.7 193 465 178.7 465 161V33C465 15.3 450.7 1.00001 433 1.00001C415.3 1.00001 401 15.3 401 33V84.2L383.4 66.6C295.9 -20.9 154.1 -20.9 66.6 66.6C-20.9 154.1 -20.9 295.9 66.6 383.4C154.1 470.9 295.9 470.9 383.4 383.4C395.9 370.9 395.9 350.6 383.4 338.1C370.9 325.6 350.6 325.6 338.1 338.1C275.6 400.6 174.3 400.6 111.8 338.1C49.3 275.6 49.3 174.3 111.8 111.8C174.3 49.3 275.6 49.3 338.1 111.8L355.3 129Z" fill="white"/>
</svg>
