<svg width="465" height="450" viewBox="0 0 465 450" fill="none" xmlns="http://www.w3.org/2000/svg">
<path d="M109.7 129H160C177.7 129 192 143.3 192 161C192 178.7 177.7 193 160 193H32C14.3 193 0 178.7 0 161V33C0 15.3 14.3 1.00001 32 1.00001C49.7 1.00001 64 15.3 64 33V84.2L81.6 66.6C169.1 -20.9 310.9 -20.9 398.4 66.6C485.9 154.1 485.9 295.9 398.4 383.4C310.9 470.9 169.1 470.9 81.6 383.4C69.1 370.9 69.1 350.6 81.6 338.1C94.1 325.6 114.4 325.6 126.9 338.1C189.4 400.6 290.7 400.6 353.2 338.1C415.7 275.6 415.7 174.3 353.2 111.8C290.7 49.3 189.4 49.3 126.9 111.8L109.7 129Z" fill="white"/>
</svg>
