<svg width="576" height="449" viewBox="0 0 576 449" fill="none" xmlns="http://www.w3.org/2000/svg">
<path d="M301.1 2.80002C312.6 8.00002 320 19.4 320 32V416C320 428.6 312.6 440 301.1 445.2C289.6 450.4 276.1 448.3 266.7 439.9L131.8 320H64C28.7 320 0 291.3 0 256V192C0 156.7 28.7 128 64 128H131.8L266.7 8.10002C276.1 -0.299977 289.6 -2.29998 301.1 2.80002ZM425 135L480 190L535 135C544.4 125.6 559.6 125.6 568.9 135C578.2 144.4 578.3 159.6 568.9 168.9L513.9 223.9L568.9 278.9C578.3 288.3 578.3 303.5 568.9 312.8C559.5 322.1 544.3 322.2 535 312.8L480 257.8L425 312.8C415.6 322.2 400.4 322.2 391.1 312.8C381.8 303.4 381.7 288.2 391.1 278.9L446.1 223.9L391.1 168.9C381.7 159.5 381.7 144.3 391.1 135C400.5 125.7 415.7 125.6 425 135Z" fill="white"/>
</svg>
